<svg width="182" height="191" viewBox="0 0 182 191" fill="none" xmlns="http://www.w3.org/2000/svg">
<path d="M85.5493 1.5847C88.8408 -0.528213 93.062 -0.528217 96.3535 1.5847L114.822 13.4403C116.269 14.3692 117.931 14.9093 119.648 15.0083L141.558 16.2725C145.463 16.4978 148.878 18.979 150.299 22.623L158.271 43.0699C158.896 44.672 159.923 46.086 161.254 47.1752L178.236 61.0762C181.263 63.5536 182.568 67.5682 181.575 71.3516L176.007 92.5797C175.571 94.243 175.571 95.9908 176.007 97.6541L181.575 118.882C182.568 122.666 181.263 126.68 178.236 129.158L161.254 143.059C159.923 144.148 158.896 145.562 158.271 147.164L150.299 167.611C148.878 171.255 145.463 173.736 141.558 173.961L119.648 175.225C117.931 175.325 116.269 175.865 114.822 176.794L96.3535 188.649C93.062 190.762 88.8408 190.762 85.5493 188.649L67.0808 176.794C65.6337 175.865 63.9715 175.325 62.2548 175.225L40.3449 173.961C36.4401 173.736 33.0251 171.255 31.6042 167.611L23.6314 147.164C23.0067 145.562 21.9794 144.148 20.6487 143.059L3.66634 129.158C0.639711 126.68 -0.664718 122.666 0.32766 118.882L5.89589 97.6541C6.3322 95.9908 6.3322 94.243 5.8959 92.5797L0.327662 71.3516C-0.664717 67.5683 0.639707 63.5536 3.66633 61.0762L20.6487 47.1752C21.9794 46.086 23.0067 44.672 23.6314 43.0699L31.6042 22.623C33.0251 18.979 36.4401 16.4978 40.3449 16.2725L62.2548 15.0083C63.9715 14.9093 65.6337 14.3692 67.0808 13.4403L85.5493 1.5847Z" fill="#F0F4F5"/>
</svg>
