<svg width="729" height="60" viewBox="0 0 729 60" fill="none" xmlns="http://www.w3.org/2000/svg">
<mask id="mask0_65_31" style="mask-type:luminance" maskUnits="userSpaceOnUse" x="0" y="0" width="435" height="60">
<path d="M0 0H434.042V60H0V0Z" fill="white"/>
</mask>
<g mask="url(#mask0_65_31)">
<path fill-rule="evenodd" clip-rule="evenodd" d="M36.425 28.935L21.515 8.97C16.819 2.71 13.859 1.21 8.972 1.21C5.892 1.21 2.834 1.832 0 2.761V58.791H12.767V20.137L36.42 51.186L59.927 20.138V58.79H72.854V2.737C70.027 1.821 67.342 1.209 63.981 1.209C59.071 1.209 55.984 2.692 51.272 8.97L36.425 28.935ZM84.408 58.789H97.782V1.209H84.408V58.789ZM168.498 43.94L156.891 37.897C153.724 44.649 148.081 48.139 138.971 48.139C126.835 48.139 119.859 39.959 119.859 29.851C119.859 19.827 126.974 11.861 138.97 11.861C147.044 11.861 152.167 15.415 155.559 21.359L167.549 15.161C162.431 5.588 151.734 0 139.227 0C118.881 0 106.384 12.834 106.384 29.85C106.384 47.024 118.881 60 139.227 60C153.701 60 164.264 54.221 168.497 43.94H168.498ZM188.07 22.95V1.21H174.769V58.79H188.069V34.817H217.24V58.79H230.54V1.21H217.24V22.95H188.07ZM254.971 47.53V34.443H287.746V23.18H254.971V12.472H290.011V1.209H242.12V48.641C242.12 55.224 245.602 58.791 252.171 58.791H290.332V47.53H254.972H254.971ZM312.946 46.919V1.209H299.571V48.641C299.571 55.224 303.054 58.791 309.699 58.791H343.853V46.918L312.946 46.919ZM351.31 58.789H364.685V1.209H351.31V58.789ZM421.27 42.99L399.247 8.865C395.464 2.951 391.746 1.209 385.595 1.209C381.818 1.209 379.198 1.753 376.255 2.766V58.79H388.952V16.102L411.771 51.942C415.243 57.466 418.674 58.79 423.381 58.79H434.043V1.21H421.272V42.99H421.27Z" fill="#F0F4F5"/>
</g>
<mask id="mask1_65_31" style="mask-type:luminance" maskUnits="userSpaceOnUse" x="463" y="0" width="267" height="60">
<path d="M463.062 0.000976562H729.002V60H463.062V0.000976562Z" fill="white"/>
</mask>
<g mask="url(#mask1_65_31)">
<path fill-rule="evenodd" clip-rule="evenodd" d="M494.532 36.879H516.92C516.029 46.217 509.12 53.974 495.21 53.899C478.008 53.824 470.19 42.322 470.19 29.919C470.19 17.08 479.277 6.12298 494.837 6.12298C506.436 6.12298 512.993 11.597 516 19.182L522.197 15.956C518.977 7.87498 510.671 0.000976562 494.929 0.000976562C475.835 0.000976562 463.062 12.75 463.062 29.913C463.062 47.015 475.609 60.001 495.153 60.001C512.028 60.001 524.41 49.603 524.41 33.601V30.79H494.532V36.88V36.879ZM560.416 53.899C548.868 53.899 541.184 47.598 541.184 36.382V1.20998H534.371V36.866C534.371 52.863 546.529 60 560.416 60C574.303 60 586.62 53.105 586.62 36.866V1.20998H579.808V36.382C579.808 47.598 571.968 53.899 560.416 53.899ZM600.671 58.789H607.492V1.21098H600.671V58.791V58.789ZM674.769 30.001C674.769 12.824 663.261 1.21098 645.869 1.21098H621.992V58.791H645.869C663.261 58.791 674.769 47.178 674.769 30.001ZM628.803 52.691V7.31098H646.341C659.635 7.31098 667.646 16.401 667.646 30.001C667.646 43.602 659.636 52.691 646.341 52.691H628.803ZM692.263 52.716V31.607H726.276V25.531H692.262V7.28698H728.679V1.21098H685.479V53.619C685.479 56.954 687.307 58.791 690.635 58.791H729.002V52.716H692.262H692.263Z" fill="#F0F4F5"/>
</g>
</svg>
